<?xml version="1.0" standalone="no"?>
<!DOCTYPE svg PUBLIC "-//W3C//DTD SVG 20010904//EN"
 "http://www.w3.org/TR/2001/REC-SVG-20010904/DTD/svg10.dtd">
<svg xmlnsMydata="http://www.w3.org/2000/svg" mydataContrastcolor="A4D65E" mydataTemplate="Contrast" mydataPresentation="2.5" mydataLayouttype="undefined" mydataSpecialfontid="undefined" mydataId1="826" mydataId2="225" mydataCompanyname="Easy Psy" mydataCompanytagline="Психодиагностика - это просто" version="1.1" xmlns="http://www.w3.org/2000/svg" xmlnsXlink="http://www.w3.org/1999/xlink" viewBox="122.14023555219273 115 305.71952889561453 240" class="watermark-logo">
<g fill="#101820" fill-rule="none" stroke="none" stroke-width="1" stroke-linecap="butt" stroke-linejoin="miter" stroke-miterlimit="10" stroke-dasharray="" stroke-dashoffset="0" font-family="none" font-weight="none" font-size="none" text-anchor="none" style="mix-blend-mode: normal">
<g data-paper-data="{&quot;isGlobalGroup&quot;:true,&quot;bounds&quot;:{&quot;x&quot;:122.14023555219273,&quot;y&quot;:115,&quot;width&quot;:305.71952889561453,&quot;height&quot;:240}}">
<g data-paper-data="{&quot;isSecondaryText&quot;:true}" fill-rule="nonzero">
<path d="M130.03987,343.41999h-7.81223v9.1955h3.04321v-6.94274h1.7258v6.94274h3.04321z" data-paper-data="{&quot;glyphName&quot;:&quot;П&quot;,&quot;glyphIndex&quot;:0,&quot;firstGlyphOfWord&quot;:true,&quot;word&quot;:1}" style="fill: rgb(255, 255, 255);"></path>
<path d="M137.79062,343.14333c-2.64799,0 -4.45284,1.79167 -4.45284,4.84806c0,3.2013 1.75215,4.91393 4.53188,4.91393c1.31741,0 2.42403,-0.63236 3.13543,-1.34376l-1.31741,-1.68628c-0.54014,0.43474 -1.02758,0.7641 -1.62041,0.7641c-1.02758,0 -1.56771,-0.86949 -1.56771,-2.64799c0,-1.75215 0.51379,-2.70069 1.46232,-2.70069c0.63236,0 1.10662,0.26348 1.51502,0.64553l1.4228,-1.67311c-0.79044,-0.69823 -1.80485,-1.1198 -3.10908,-1.1198z" data-paper-data="{&quot;glyphName&quot;:&quot;С&quot;,&quot;glyphIndex&quot;:1,&quot;word&quot;:1}" style="fill: rgb(255, 255, 255);"></path>
<path d="M151.7727,343.41999h-3.51748l-1.65993,6.27086c0.21079,-0.98806 0.44792,-2.01563 0.44792,-3.70191v-2.56894h-2.96417v9.1955h3.58335l1.59406,-6.3499c-0.23713,0.96171 -0.44792,2.14737 -0.44792,3.9127v2.4372h2.96417z" data-paper-data="{&quot;glyphName&quot;:&quot;И&quot;,&quot;glyphIndex&quot;:2,&quot;word&quot;:1}" style="fill: rgb(255, 255, 255);"></path>
<path d="M160.76181,347.66204l2.34499,-4.24205h-3.2013l-0.94853,2.46355l-0.81679,-2.46355h-3.254l2.23959,4.33427l-2.38451,4.86123h3.21447l0.97488,-2.95099l1.08027,2.95099h3.254z" data-paper-data="{&quot;glyphName&quot;:&quot;Х&quot;,&quot;glyphIndex&quot;:3,&quot;word&quot;:1}" style="fill: rgb(255, 255, 255);"></path><path d="M169.72457,343.14333c-2.87195,0 -4.38697,1.88389 -4.38697,4.86123c0,3.04321 1.51502,4.90076 4.38697,4.90076c2.85877,0 4.37379,-1.93659 4.37379,-4.90076c0,-3.04321 -1.51502,-4.86123 -4.37379,-4.86123zM169.72457,345.26436c0.90901,0 1.22519,0.72457 1.22519,2.74021c0,2.00246 -0.27666,2.76656 -1.22519,2.76656c-0.93536,0 -1.22519,-0.7641 -1.22519,-2.76656c0,-2.01563 0.303,-2.74021 1.22519,-2.74021z" data-paper-data="{&quot;glyphName&quot;:&quot;О&quot;,&quot;glyphIndex&quot;:4,&quot;word&quot;:1}" style="fill: rgb(255, 255, 255);"></path>
<path d="M184.77376,350.36273v-6.94274h-6.00738l-0.38205,3.10908c-0.28983,2.30546 -0.63236,3.28034 -1.00123,3.83366h-0.7114v4.63727h1.98929l0.27666,-2.38451h4.43966l0.27666,2.38451h1.98929v-4.63727zM181.86229,350.36273h-2.1342c0.77727,-0.6587 1.31741,-1.84437 1.52819,-4.25523l0.03952,-0.54014h0.56649z" data-paper-data="{&quot;glyphName&quot;:&quot;Д&quot;,&quot;glyphIndex&quot;:5,&quot;word&quot;:1}" style="fill: rgb(255, 255, 255);"></path><path d="M196.26594,343.41999h-3.51748l-1.65993,6.27086c0.21079,-0.98806 0.44792,-2.01563 0.44792,-3.70191v-2.56894h-2.96417v9.1955h3.58335l1.59406,-6.3499c-0.23713,0.96171 -0.44792,2.14737 -0.44792,3.9127v2.4372h2.96417z" data-paper-data="{&quot;glyphName&quot;:&quot;И&quot;,&quot;glyphIndex&quot;:6,&quot;word&quot;:1}" style="fill: rgb(255, 255, 255);"></path><path d="M204.60952,352.61549h3.21447l-2.60847,-9.1955h-3.6097l-2.62164,9.1955h3.18813l0.27666,-1.65993h1.87072zM202.80467,348.84771l0.56649,-3.33304l0.57966,3.33304z" data-paper-data="{&quot;glyphName&quot;:&quot;А&quot;,&quot;glyphIndex&quot;:7,&quot;word&quot;:1}" style="fill: rgb(255, 255, 255);"></path><path d="M216.99754,343.41999h-6.4553v9.1955h3.04321v-6.87687h3.13543z" data-paper-data="{&quot;glyphName&quot;:&quot;Г&quot;,&quot;glyphIndex&quot;:8,&quot;word&quot;:1}" style="fill: rgb(255, 255, 255);"></path><path d="M224.78781,352.61549h3.04321v-9.1955h-3.04321v3.29352h-1.71263v-3.29352h-3.04321v9.1955h3.04321v-3.57017h1.71263z" data-paper-data="{&quot;glyphName&quot;:&quot;Н&quot;,&quot;glyphIndex&quot;:9,&quot;word&quot;:1}" style="fill: rgb(255, 255, 255);"></path><path d="M235.5159,343.14333c-2.87195,0 -4.38697,1.88389 -4.38697,4.86123c0,3.04321 1.51502,4.90076 4.38697,4.90076c2.85877,0 4.37379,-1.93659 4.37379,-4.90076c0,-3.04321 -1.51502,-4.86123 -4.37379,-4.86123zM235.5159,345.26436c0.90901,0 1.22519,0.72457 1.22519,2.74021c0,2.00246 -0.27666,2.76656 -1.22519,2.76656c-0.93536,0 -1.22519,-0.7641 -1.22519,-2.76656c0,-2.01563 0.303,-2.74021 1.22519,-2.74021z" data-paper-data="{&quot;glyphName&quot;:&quot;О&quot;,&quot;glyphIndex&quot;:10,&quot;word&quot;:1}" style="fill: rgb(255, 255, 255);"></path><path d="M247.41648,343.14333c-2.64799,0 -4.45284,1.79167 -4.45284,4.84806c0,3.2013 1.75215,4.91393 4.53188,4.91393c1.31741,0 2.42403,-0.63236 3.13543,-1.34376l-1.31741,-1.68628c-0.54014,0.43474 -1.02758,0.7641 -1.62041,0.7641c-1.02758,0 -1.56771,-0.86949 -1.56771,-2.64799c0,-1.75215 0.51379,-2.70069 1.46232,-2.70069c0.63236,0 1.10662,0.26348 1.51502,0.64553l1.4228,-1.67311c-0.79044,-0.69823 -1.80485,-1.1198 -3.10908,-1.1198z" data-paper-data="{&quot;glyphName&quot;:&quot;С&quot;,&quot;glyphIndex&quot;:11,&quot;word&quot;:1}" style="fill: rgb(255, 255, 255);"></path><path d="M260.83208,343.41999h-7.48287v2.25277h2.14737v6.94274h3.04321v-6.94274h1.97611z" data-paper-data="{&quot;glyphName&quot;:&quot;Т&quot;,&quot;glyphIndex&quot;:12,&quot;word&quot;:1}" style="fill: rgb(255, 255, 255);"></path><path d="M271.54699,343.41999h-3.51748l-1.65993,6.27086c0.21079,-0.98806 0.44792,-2.01563 0.44792,-3.70191v-2.56894h-2.96417v9.1955h3.58335l1.59406,-6.3499c-0.23713,0.96171 -0.44792,2.14737 -0.44792,3.9127v2.4372h2.96417z" data-paper-data="{&quot;glyphName&quot;:&quot;И&quot;,&quot;glyphIndex&quot;:13,&quot;word&quot;:1}" style="fill: rgb(255, 255, 255);"></path><path d="M283.36853,343.41999h-2.8983l-1.58089,3.39891h-0.7641v-3.39891h-3.04321v9.1955h3.04321v-3.68874h0.69823l1.54137,3.68874h3.24082l-2.22642,-5.16424z" data-paper-data="{&quot;glyphName&quot;:&quot;К&quot;,&quot;glyphIndex&quot;:14,&quot;word&quot;:1}" style="fill: rgb(255, 255, 255);"></path><path d="M291.27737,352.61549h3.21447l-2.60847,-9.1955h-3.6097l-2.62164,9.1955h3.18813l0.27666,-1.65993h1.87072zM289.47252,348.84771l0.56649,-3.33304l0.57966,3.33304z" data-paper-data="{&quot;glyphName&quot;:&quot;А&quot;,&quot;glyphIndex&quot;:15,&quot;lastGlyphOfWord&quot;:true,&quot;word&quot;:1}" style="fill: rgb(255, 255, 255);"></path><path d="M302.70807,349.58546h4.65045v-2.1869h-4.65045z" data-paper-data="{&quot;glyphName&quot;:&quot;-&quot;,&quot;glyphIndex&quot;:16,&quot;firstGlyphOfWord&quot;:true,&quot;lastGlyphOfWord&quot;:true,&quot;word&quot;:2}" style="fill: rgb(255, 255, 255);"></path>
<path d="M318.94731,343.14333c-1.46232,0 -2.29229,0.42157 -3.09591,1.1198l1.40963,1.63359c0.44792,-0.42157 0.82997,-0.64553 1.38328,-0.64553c0.82997,0 1.17249,0.51379 1.27789,1.68628h-2.66116v2.00246h2.66116c-0.06587,1.17249 -0.48744,1.79167 -1.31741,1.79167c-0.54014,0 -0.94853,-0.17126 -1.43597,-0.56649l-1.29106,1.60724c0.7641,0.72457 1.67311,1.13297 2.99051,1.13297c2.51625,0 4.09714,-1.71263 4.09714,-4.91393c0,-2.99051 -1.38328,-4.84806 -4.01809,-4.84806z" data-paper-data="{&quot;glyphName&quot;:&quot;Э&quot;,&quot;glyphIndex&quot;:17,&quot;firstGlyphOfWord&quot;:true,&quot;word&quot;:3}" style="fill: rgb(255, 255, 255);"></path><path d="M333.12701,343.41999h-7.48287v2.25277h2.14737v6.94274h3.04321v-6.94274h1.97611z" data-paper-data="{&quot;glyphName&quot;:&quot;Т&quot;,&quot;glyphIndex&quot;:18,&quot;word&quot;:3}" style="fill: rgb(255, 255, 255);"></path><path d="M339.74479,343.14333c-2.87195,0 -4.38697,1.88389 -4.38697,4.86123c0,3.04321 1.51502,4.90076 4.38697,4.90076c2.85877,0 4.37379,-1.93659 4.37379,-4.90076c0,-3.04321 -1.51502,-4.86123 -4.37379,-4.86123zM339.74479,345.26436c0.90901,0 1.22519,0.72457 1.22519,2.74021c0,2.00246 -0.27666,2.76656 -1.22519,2.76656c-0.93536,0 -1.22519,-0.7641 -1.22519,-2.76656c0,-2.01563 0.303,-2.74021 1.22519,-2.74021z" data-paper-data="{&quot;glyphName&quot;:&quot;О&quot;,&quot;glyphIndex&quot;:19,&quot;lastGlyphOfWord&quot;:true,&quot;word&quot;:3}" style="fill: rgb(255, 255, 255);"></path><path d="M360.75304,343.41999h-7.81223v9.1955h3.04321v-6.94274h1.7258v6.94274h3.04321z" data-paper-data="{&quot;glyphName&quot;:&quot;П&quot;,&quot;glyphIndex&quot;:20,&quot;firstGlyphOfWord&quot;:true,&quot;word&quot;:4}" style="fill: rgb(255, 255, 255);"></path><path d="M367.80556,343.41999h-3.51748v9.1955h3.04321v-2.75338h0.84314c2.21324,0 3.71509,-1.13297 3.71509,-3.29352c0,-2.0815 -1.55454,-3.1486 -4.08396,-3.1486zM367.85826,347.74108h-0.52696v-2.22642h0.42157c0.80362,0 1.04075,0.43474 1.04075,1.05393c0,0.75092 -0.303,1.17249 -0.93536,1.17249z" data-paper-data="{&quot;glyphName&quot;:&quot;Р&quot;,&quot;glyphIndex&quot;:21,&quot;word&quot;:4}" style="fill: rgb(255, 255, 255);"></path><path d="M379.3241,343.14333c-2.87195,0 -4.38697,1.88389 -4.38697,4.86123c0,3.04321 1.51502,4.90076 4.38697,4.90076c2.85877,0 4.37379,-1.93659 4.37379,-4.90076c0,-3.04321 -1.51502,-4.86123 -4.37379,-4.86123zM379.3241,345.26436c0.90901,0 1.22519,0.72457 1.22519,2.74021c0,2.00246 -0.27666,2.76656 -1.22519,2.76656c-0.93536,0 -1.22519,-0.7641 -1.22519,-2.76656c0,-2.01563 0.303,-2.74021 1.22519,-2.74021z" data-paper-data="{&quot;glyphName&quot;:&quot;О&quot;,&quot;glyphIndex&quot;:22,&quot;word&quot;:4}" style="fill: rgb(255, 255, 255);"></path><path d="M391.22468,343.14333c-2.64799,0 -4.45284,1.79167 -4.45284,4.84806c0,3.2013 1.75215,4.91393 4.53188,4.91393c1.31741,0 2.42403,-0.63236 3.13543,-1.34376l-1.31741,-1.68628c-0.54014,0.43474 -1.02758,0.7641 -1.62041,0.7641c-1.02758,0 -1.56771,-0.86949 -1.56771,-2.64799c0,-1.75215 0.51379,-2.70069 1.46232,-2.70069c0.63236,0 1.10662,0.26348 1.51502,0.64553l1.4228,-1.67311c-0.79044,-0.69823 -1.80485,-1.1198 -3.10908,-1.1198z" data-paper-data="{&quot;glyphName&quot;:&quot;С&quot;,&quot;glyphIndex&quot;:23,&quot;word&quot;:4}" style="fill: rgb(255, 255, 255);"></path><path d="M404.64028,343.41999h-7.48287v2.25277h2.14737v6.94274h3.04321v-6.94274h1.97611z" data-paper-data="{&quot;glyphName&quot;:&quot;Т&quot;,&quot;glyphIndex&quot;:24,&quot;word&quot;:4}" style="fill: rgb(255, 255, 255);"></path><path d="M411.25805,343.14333c-2.87195,0 -4.38697,1.88389 -4.38697,4.86123c0,3.04321 1.51502,4.90076 4.38697,4.90076c2.85877,0 4.37379,-1.93659 4.37379,-4.90076c0,-3.04321 -1.51502,-4.86123 -4.37379,-4.86123zM411.25805,345.26436c0.90901,0 1.22519,0.72457 1.22519,2.74021c0,2.00246 -0.27666,2.76656 -1.22519,2.76656c-0.93536,0 -1.22519,-0.7641 -1.22519,-2.76656c0,-2.01563 0.303,-2.74021 1.22519,-2.74021z" data-paper-data="{&quot;glyphName&quot;:&quot;О&quot;,&quot;glyphIndex&quot;:25,&quot;lastGlyphOfWord&quot;:true,&quot;word&quot;:4}" style="fill: rgb(255, 255, 255);"></path></g><g data-paper-data="{&quot;isPrimaryText&quot;:true}" fill-rule="nonzero"><path d="M122.42496,307.28212c-0.07118,0 -0.07118,0 -0.07118,0c0,0.49826 0,0.99652 0,1.56597c0,1.28125 -0.14236,22.4218 -0.14236,23.34715c0,1.28125 0.28472,1.63715 1.42361,1.63715c0,0 1.77951,-0.07118 3.55902,-0.07118c6.05033,0 12.10066,0.07118 18.0798,0.07118c17.29682,0 16.22912,0.85416 16.22912,-4.27082c0,-1.70833 -0.07118,-3.41666 -0.14236,-5.19616c-0.07118,-2.34895 -1.85069,-2.27777 -3.34548,-2.27777c0,0 -13.3819,0.3559 -20.28639,0.3559c-1.21007,0 -1.21007,-0.14236 -1.21007,-1.42361c0,-10.67705 -0.21354,-9.68053 1.49479,-9.68053c14.52079,-0.21354 13.88016,-0.28472 13.88016,-5.55207c0,-6.69095 -0.14236,-6.33505 -11.10413,-6.33505c-1.56597,0 -3.34548,0.07118 -3.34548,0.07118c-1.0677,0 -0.92534,0.3559 -0.92534,-8.04338c0,-0.78298 0.28472,-1.0677 0.99652,-1.0677c0,0 0.3559,0 0.64062,0c0.21354,0 0.3559,0 0.56944,0c0,0 6.40623,0.21354 10.74823,0.21354c11.46003,0 10.81941,-0.28472 11.31767,-1.99305c0.21354,-0.92534 0.21354,-1.13889 0.21354,-5.48089c0,-3.48784 0.14236,-4.55554 -2.34895,-4.55554c0,0 -8.18574,0.56944 -32.38705,0.56944c-1.42361,0 -2.70485,-0.14236 -2.70485,-0.14236c-0.7118,0 -1.13889,0.49826 -1.13889,1.35243c-0.14236,2.84721 -0.28472,5.62325 -0.28472,8.39928c0,4.48436 0.21354,13.7378 0.28472,18.50689z" data-paper-data="{&quot;glyphName&quot;:&quot;E&quot;,&quot;glyphIndex&quot;:0,&quot;firstGlyphOfWord&quot;:true,&quot;word&quot;:1}" style="fill: rgb(255, 255, 255);"></path><path d="M198.30319,333.69002v0c33.45476,0 32.17351,0.78298 32.17351,-2.06423c0,0 -0.07118,-0.42708 -0.07118,-2.49131c0,-7.9722 0.3559,-10.96177 0.3559,-20.14403c0,-9.18226 0.21354,-9.11108 -2.49131,-9.11108c-7.54512,0 -9.53816,-0.3559 -20.9982,-0.3559c-1.28125,0 -1.35243,-0.21354 -1.35243,-2.27777c0,-1.63715 0.21354,-3.34548 0.56944,-4.98262c0.28472,-1.49479 0.49826,-1.77951 2.06423,-1.85069c3.91492,-0.28472 7.75866,-0.64062 11.67357,-0.64062c12.10066,0 11.24649,0.64062 11.24649,-3.77256c0,-1.49479 -0.07118,-2.91839 -0.28472,-4.342c-0.56944,-3.91492 0.28472,-1.99305 -15.94439,-2.91839c-7.18921,-0.42708 -14.37843,-0.14236 -21.56764,0.28472c-2.27777,0.14236 -2.63367,0.49826 -2.63367,3.2743c0,28.61449 0.14236,29.3263 2.70485,29.3263c0,0 2.20659,-0.07118 5.76561,-0.07118c2.20659,0 4.48436,0 6.76213,0c5.26734,0 8.82636,-0.28472 8.82636,-0.28472c1.21007,0 1.0677,-0.21354 1.0677,9.75171c0,2.34895 4.12846,1.63715 -47.762,1.63715c-0.28472,0 -0.56944,0.07118 -0.92534,0.07118c-0.7118,0 -1.63715,-0.28472 -1.63715,0.99652c0,10.53469 -0.56944,9.96525 3.06075,9.96525zM185.27719,318.52861c2.49131,0 1.35243,-15.37495 1.35243,-16.86974c0,-2.84721 0,-5.62325 0,-8.47046c0,-9.3958 0.3559,-8.54164 -1.42361,-8.54164c-19.93049,0 -18.93397,0.21354 -18.93397,0.99652c-0.64062,7.33157 -0.49826,8.18574 1.13889,8.18574c-0.07118,0 1.35243,0 5.12498,0c0.92534,0 1.35243,-0.49826 1.42361,-1.42361c0.28472,-2.13541 0.28472,-1.63715 3.55902,-1.63715c0.78298,0 1.0677,0.3559 1.0677,1.13889c0,0 -0.07118,1.13889 -0.07118,2.77603c0,1.0677 0,2.63367 0,3.20311c0,1.49479 0.49826,1.13889 -10.46351,1.35243c-1.85069,0 -1.99305,-2.27777 -1.99305,17.51036c0,1.77951 -1.0677,1.77951 19.21869,1.77951zM175.31194,306.00087c3.91492,0 3.41666,-0.49826 3.41666,2.20659c0,2.63367 0.21354,2.77603 -3.20311,2.77603c-0.92534,0 -1.13889,-0.07118 -1.13889,-1.99305c0,-0.07118 0,-0.3559 0,-0.28472c-0.28472,-2.49131 -0.28472,-2.70485 0.92534,-2.70485z" data-paper-data="{&quot;glyphName&quot;:&quot;&quot;,&quot;glyphIndex&quot;:1,&quot;word&quot;:1}" style="fill: rgb(255, 255, 255);"></path><path d="M255.60336,308.84808c-0.92534,-0.7118 -2.06423,-3.55902 -4.76908,-8.3281c-1.0677,-1.85069 -0.64062,-2.20659 -0.64062,-10.03643c0,-12.45656 -0.07118,-11.60239 -1.28125,-11.60239c-0.99652,0 -9.0399,0.28472 -11.24649,0.3559c-2.27777,0.07118 -1.92187,-2.20659 -1.92187,19.93049c0,1.0677 -0.85416,-0.28472 11.67357,16.37148c1.0677,1.35243 0.78298,2.34895 0.78298,5.69443c0,13.3819 0.14236,12.52774 2.27777,12.59892c1.42361,0 2.91839,0.07118 4.342,0.07118c7.6163,0 8.684,0.14236 8.684,-1.63715c0,-0.14236 -0.56944,-12.95482 -0.56944,-13.09718c0,-4.62672 12.6701,-16.22912 12.6701,-20.71348c0,-0.7118 -0.07118,-0.78298 -0.07118,-1.77951c0,-17.93744 0.42708,-18.36453 -2.06423,-18.36453c-0.21354,0 -5.19616,0.14236 -10.32115,0.42708c-1.63715,0.07118 -1.77951,0.14236 -1.77951,1.63715l0.14236,18.43571c0,0.92534 0.3559,0.14236 -5.90797,10.03643z" data-paper-data="{&quot;glyphName&quot;:&quot;Y&quot;,&quot;glyphIndex&quot;:2,&quot;lastGlyphOfWord&quot;:true,&quot;word&quot;:1}" style="fill: rgb(255, 255, 255);"></path><path d="M300.37579,278.95234c-3.13193,0.07118 -2.70485,-3.48784 -2.70485,48.40263c0,5.26734 -0.21354,6.12151 1.42361,6.12151c0,0 2.56249,-0.21354 5.90797,-0.21354c1.49479,0 5.19616,0 5.19616,0c1.42361,0 1.99305,-0.56944 1.99305,-1.85069c0,0 -0.21354,-2.70485 -0.21354,-6.54859c0,-2.70485 0.07118,-5.48089 0.07118,-8.18574c0,-5.33852 -1.13889,-3.70138 6.90449,-4.27082c3.70138,-0.28472 7.33157,-0.92534 10.67705,-2.49131c5.55207,-2.49131 9.3958,-8.684 9.3958,-14.73433c0,-8.82636 -7.04685,-16.6562 -19.93049,-16.6562c0,0 -5.40971,0.28472 -18.72043,0.42708zM320.02156,299.23874c-8.89754,0 -8.11456,0.92534 -8.11456,-2.56249c0,-1.70833 -0.07118,-4.342 -0.07118,-4.342c0,-1.13889 -0.14236,-1.13889 9.25344,-1.13889c2.13541,0 3.77256,2.42013 3.77256,4.342c0,1.42361 -0.7118,3.70138 -2.98957,3.70138c0,0 -0.85416,0 -1.85069,0z" data-paper-data="{&quot;glyphName&quot;:&quot;P&quot;,&quot;glyphIndex&quot;:3,&quot;firstGlyphOfWord&quot;:true,&quot;word&quot;:2}" style="fill: rgb(255, 255, 255);"></path><path d="M361.80442,278.59644c-19.71695,0 -18.50689,0.28472 -18.50689,3.6302c0,28.32977 0.07118,29.39748 2.70485,29.39748c0,0 2.20659,-0.07118 5.76561,-0.07118c2.20659,0 4.48436,0 6.76213,0c5.33852,0 8.89754,-0.28472 8.89754,-0.28472c1.0677,0 0.99652,-0.28472 0.99652,9.32462c0,2.13541 -19.07633,0.49826 -23.06243,1.35243c-1.21007,0.28472 -1.63715,0.64062 -1.63715,1.85069c0,1.63715 0.14236,5.55207 0.42708,8.39928c0.21354,1.85069 -0.21354,1.56597 20.07285,1.56597c19.21869,0 18.43571,0.3559 18.43571,-2.27777c0,0 0,-1.21007 0,-2.20659c0,-8.47046 0.3559,-10.67705 0.3559,-20.28639c0,-9.11108 0.28472,-9.11108 -2.56249,-9.11108c-6.19269,0 -12.38538,-0.42708 -18.64925,-0.42708c-1.13889,0 -2.34895,0.07118 -2.34895,0.07118c-1.13889,0 -1.28125,-0.21354 -1.28125,-2.27777c0,-1.63715 0.21354,-3.20311 0.49826,-4.84026c0.3559,-1.70833 0.56944,-1.92187 2.20659,-1.99305c3.84374,-0.28472 7.68748,-0.64062 11.53121,-0.64062c1.77951,0 2.13541,0.07118 3.91492,0.07118c8.11456,0 7.40275,0.07118 7.40275,-3.91492c0,-1.56597 -0.07118,-3.20311 -0.3559,-4.84026c-0.56944,-3.6302 -0.42708,-0.92534 -18.72043,-2.49131c-0.99652,0 -1.92187,0 -2.84721,0z" data-paper-data="{&quot;glyphName&quot;:&quot;S&quot;,&quot;glyphIndex&quot;:4,&quot;word&quot;:2}" style="fill: rgb(255, 255, 255);"></path><path d="M407.85809,308.84808c-0.92534,-0.7118 -2.06423,-3.55902 -4.76908,-8.3281c-1.0677,-1.85069 -0.64062,-2.20659 -0.64062,-10.03643c0,-12.45656 -0.07118,-11.60239 -1.28125,-11.60239c-0.99652,0 -9.0399,0.28472 -11.24649,0.3559c-2.27777,0.07118 -1.92187,-2.20659 -1.92187,19.93049c0,1.0677 -0.85416,-0.28472 11.67357,16.37148c1.0677,1.35243 0.78298,2.34895 0.78298,5.69443c0,13.3819 0.14236,12.52774 2.27777,12.59892c1.42361,0 2.91839,0.07118 4.342,0.07118c7.6163,0 8.684,0.14236 8.684,-1.63715c0,-0.14236 -0.56944,-12.95482 -0.56944,-13.09718c0,-4.62672 12.6701,-16.22912 12.6701,-20.71348c0,-0.7118 -0.07118,-0.78298 -0.07118,-1.77951c0,-17.93744 0.42708,-18.36453 -2.06423,-18.36453c-0.21354,0 -5.19616,0.14236 -10.32115,0.42708c-1.63715,0.07118 -1.77951,0.14236 -1.77951,1.63715l0.14236,18.43571c0,0.92534 0.3559,0.14236 -5.90797,10.03643z" data-paper-data="{&quot;glyphName&quot;:&quot;Y&quot;,&quot;glyphIndex&quot;:5,&quot;lastGlyphOfWord&quot;:true,&quot;word&quot;:2}" style="fill: rgb(255, 255, 255);"></path></g><g data-paper-data="{&quot;isIcon&quot;:&quot;true&quot;,&quot;iconType&quot;:&quot;icon&quot;,&quot;rawIconId&quot;:&quot;3964630&quot;,&quot;selectedEffects&quot;:{&quot;container&quot;:&quot;&quot;,&quot;transformation&quot;:&quot;&quot;,&quot;pattern&quot;:&quot;&quot;},&quot;isDetailed&quot;:false,&quot;iconStyle&quot;:&quot;standalone&quot;,&quot;bounds&quot;:{&quot;x&quot;:205.04240022838397,&quot;y&quot;:115,&quot;width&quot;:139.9151995432321,&quot;height&quot;:134.75872854279035},&quot;fillRule&quot;:&quot;evenodd&quot;,&quot;suitableAsStandaloneIcon&quot;:true}" fill-rule="evenodd">

<path d="M299.17816,136.57445l45.47539,94.78703c0.47154,1.26596 0.39182,2.67158 -0.21979,3.8762c-0.74627,1.37545 -2.10533,2.31093 -3.65641,2.51753l-90.51122,11.98824c-0.21259,0.02038 -0.42678,0.02038 -0.63937,0h-1.95808l-0.33967,-0.15985h-0.11988l-39.9608,-22.99744c-0.05615,-0.05135 -0.11628,-0.0981 -0.17983,-0.13987c-0.14905,-0.08652 -0.28951,-0.18681 -0.41959,-0.29971l-0.33967,-0.29971l-0.33967,-0.35965l-0.17983,-0.33967l-0.23977,-0.3996c-0.08112,-0.13567 -0.15445,-0.27573 -0.21979,-0.41959c-0.05994,-0.13987 -0.15985,-0.29971 -0.15985,-0.43957c-0.04915,-0.14386 -0.08931,-0.29072 -0.11988,-0.43957c-0.00959,-0.15964 -0.00959,-0.31989 0,-0.47953c-0.01079,-0.15305 -0.01079,-0.3065 0,-0.45955c-0.00999,-0.15305 -0.00999,-0.3065 0,-0.45955c-0.00999,-0.15964 -0.00999,-0.31989 0,-0.47953c0.02378,-0.15505 0.05714,-0.3085 0.0999,-0.45955c0.05994,-0.15985 0.15985,-0.3996 0.15985,-0.47953v-0.21979l45.09577,-102.67928c0.06134,-0.12668 0.13486,-0.24716 0.21979,-0.35965c0.07912,-0.15085 0.16583,-0.29751 0.25975,-0.43957l0.29971,-0.33967l0.33967,-0.37962l0.35965,-0.25975c0.12448,-0.11089 0.25814,-0.2112 0.3996,-0.29971l0.37962,-0.19981l0.45955,-0.19981c0.13707,-0.04915 0.27733,-0.08911 0.41959,-0.11988l0.47953,-0.11988c0.14585,-0.02078 0.29371,-0.02078 0.43957,0h1.45857l0.45955,0.19981l0.3996,0.13987h0.11988l39.9608,18.92144l0.19981,0.11988l0.45955,0.27973l0.27973,0.19981c0.21179,0.15864 0.406,0.33947 0.57943,0.53947l0.13987,0.15985l0.37962,0.51949l0.13987,0.25975zM279.29766,162.82869l9.17101,-21.71869l-25.91458,-12.24799zM276.28062,169.9617l-20.18021,-40.95983l-39.36139,89.63209l40.93985,-4.71537zM275.58131,211.96051l20.30009,-2.29774l-10.24994,-20.63975l2.83721,-7.49265l14.04622,28.43211l28.31223,15.14514l-35.76492,-74.54688l-37.54317,88.91279l70.33101,-9.29089l-28.13241,-15.06522l-26.65385,3.01704zM222.21365,223.90878l25.15533,14.48579l7.69245,-18.22213z" data-paper-data="{&quot;isPathIcon&quot;:true}" style="fill: rgb(255, 255, 255);"></path>

</g></g></g><g class="watermark-group" style="opacity:0.040000010281801224"></g></svg>