<?xml version="1.0" standalone="no"?>
<!DOCTYPE svg PUBLIC "-//W3C//DTD SVG 20010904//EN"
 "http://www.w3.org/TR/2001/REC-SVG-20010904/DTD/svg10.dtd">
<svg xmlnsMydata="http://www.w3.org/2000/svg" mydataContrastcolor="A4D65E" mydataTemplate="Contrast" mydataPresentation="2.5" mydataLayouttype="undefined" mydataSpecialfontid="undefined" mydataId1="826" mydataId2="225" mydataCompanyname="Easy Psy" mydataCompanytagline="Психодиагностика - это просто" version="1.1" xmlns="http://www.w3.org/2000/svg" xmlnsXlink="http://www.w3.org/1999/xlink" viewBox="122.14023555219273 115 305.71952889561453 240" class="watermark-logo">
<g fill="#101820" fill-rule="none" stroke="none" stroke-width="1" stroke-linecap="butt" stroke-linejoin="miter" stroke-miterlimit="10" stroke-dasharray="" stroke-dashoffset="0" font-family="none" font-weight="none" font-size="none" text-anchor="none" style="mix-blend-mode: normal">
<g data-paper-data="{&quot;isGlobalGroup&quot;:true,&quot;bounds&quot;:{&quot;x&quot;:122.14023555219273,&quot;y&quot;:115,&quot;width&quot;:305.71952889561453,&quot;height&quot;:240}}">
<g data-paper-data="{&quot;isSecondaryText&quot;:true}" fill-rule="nonzero">

<path d="M299.17816,136.57445l45.47539,94.78703c0.47154,1.26596 0.39182,2.67158 -0.21979,3.8762c-0.74627,1.37545 -2.10533,2.31093 -3.65641,2.51753l-90.51122,11.98824c-0.21259,0.02038 -0.42678,0.02038 -0.63937,0h-1.95808l-0.33967,-0.15985h-0.11988l-39.9608,-22.99744c-0.05615,-0.05135 -0.11628,-0.0981 -0.17983,-0.13987c-0.14905,-0.08652 -0.28951,-0.18681 -0.41959,-0.29971l-0.33967,-0.29971l-0.33967,-0.35965l-0.17983,-0.33967l-0.23977,-0.3996c-0.08112,-0.13567 -0.15445,-0.27573 -0.21979,-0.41959c-0.05994,-0.13987 -0.15985,-0.29971 -0.15985,-0.43957c-0.04915,-0.14386 -0.08931,-0.29072 -0.11988,-0.43957c-0.00959,-0.15964 -0.00959,-0.31989 0,-0.47953c-0.01079,-0.15305 -0.01079,-0.3065 0,-0.45955c-0.00999,-0.15305 -0.00999,-0.3065 0,-0.45955c-0.00999,-0.15964 -0.00999,-0.31989 0,-0.47953c0.02378,-0.15505 0.05714,-0.3085 0.0999,-0.45955c0.05994,-0.15985 0.15985,-0.3996 0.15985,-0.47953v-0.21979l45.09577,-102.67928c0.06134,-0.12668 0.13486,-0.24716 0.21979,-0.35965c0.07912,-0.15085 0.16583,-0.29751 0.25975,-0.43957l0.29971,-0.33967l0.33967,-0.37962l0.35965,-0.25975c0.12448,-0.11089 0.25814,-0.2112 0.3996,-0.29971l0.37962,-0.19981l0.45955,-0.19981c0.13707,-0.04915 0.27733,-0.08911 0.41959,-0.11988l0.47953,-0.11988c0.14585,-0.02078 0.29371,-0.02078 0.43957,0h1.45857l0.45955,0.19981l0.3996,0.13987h0.11988l39.9608,18.92144l0.19981,0.11988l0.45955,0.27973l0.27973,0.19981c0.21179,0.15864 0.406,0.33947 0.57943,0.53947l0.13987,0.15985l0.37962,0.51949l0.13987,0.25975zM279.29766,162.82869l9.17101,-21.71869l-25.91458,-12.24799zM276.28062,169.9617l-20.18021,-40.95983l-39.36139,89.63209l40.93985,-4.71537zM275.58131,211.96051l20.30009,-2.29774l-10.24994,-20.63975l2.83721,-7.49265l14.04622,28.43211l28.31223,15.14514l-35.76492,-74.54688l-37.54317,88.91279l70.33101,-9.29089l-28.13241,-15.06522l-26.65385,3.01704zM222.21365,223.90878l25.15533,14.48579l7.69245,-18.22213z" data-paper-data="{&quot;isPathIcon&quot;:true}" style="fill: rgb(255, 255, 255);"></path>

</g></g></g><g class="watermark-group" style="opacity:0.040000010281801224"></g></svg>