<?xml version="1.0" encoding="UTF-8" standalone="no" ?>
<!DOCTYPE svg PUBLIC "-//W3C//DTD SVG 1.1//EN" "http://www.w3.org/Graphics/SVG/1.1/DTD/svg11.dtd">
<svg xmlns="http://www.w3.org/2000/svg" xmlns:xlink="http://www.w3.org/1999/xlink" version="1.1" width="200" height="200" viewBox="0 0 200 200" xml:space="preserve">
<desc>Created with Fabric.js 3.6.6</desc>
<defs>
</defs>
<g transform="matrix(1 0 0 1 90.25 84.77)"  >
<path style="stroke: none; stroke-width: 1; stroke-dasharray: none; stroke-linecap: butt; stroke-dashoffset: 0; stroke-linejoin: miter; stroke-miterlimit: 10; fill: rgb(255,255,255); fill-rule: evenodd; opacity: 1;"  transform=" translate(-275, -182.38)" d="M 299.17816 136.57445 l 45.47539 94.78703 c 0.47154 1.26596 0.39182 2.67158 -0.21979 3.8762 c -0.74627 1.37545 -2.10533 2.31093 -3.65641 2.51753 l -90.51122 11.98824 c -0.21259 0.02038 -0.42678 0.02038 -0.63937 0 h -1.95808 l -0.33967 -0.15985 h -0.11988 l -39.9608 -22.99744 c -0.05615 -0.05135 -0.11628 -0.0981 -0.17983 -0.13987 c -0.14905 -0.08652 -0.28951 -0.18681 -0.41959 -0.29971 l -0.33967 -0.29971 l -0.33967 -0.35965 l -0.17983 -0.33967 l -0.23977 -0.3996 c -0.08112 -0.13567 -0.15445 -0.27573 -0.21979 -0.41959 c -0.05994 -0.13987 -0.15985 -0.29971 -0.15985 -0.43957 c -0.04915 -0.14386 -0.08931 -0.29072 -0.11988 -0.43957 c -0.00959 -0.15964 -0.00959 -0.31989 0 -0.47953 c -0.01079 -0.15305 -0.01079 -0.3065 0 -0.45955 c -0.00999 -0.15305 -0.00999 -0.3065 0 -0.45955 c -0.00999 -0.15964 -0.00999 -0.31989 0 -0.47953 c 0.02378 -0.15505 0.05714 -0.3085 0.0999 -0.45955 c 0.05994 -0.15985 0.15985 -0.3996 0.15985 -0.47953 v -0.21979 l 45.09577 -102.67928 c 0.06134 -0.12668 0.13486 -0.24716 0.21979 -0.35965 c 0.07912 -0.15085 0.16583 -0.29751 0.25975 -0.43957 l 0.29971 -0.33967 l 0.33967 -0.37962 l 0.35965 -0.25975 c 0.12448 -0.11089 0.25814 -0.2112 0.3996 -0.29971 l 0.37962 -0.19981 l 0.45955 -0.19981 c 0.13707 -0.04915 0.27733 -0.08911 0.41959 -0.11988 l 0.47953 -0.11988 c 0.14585 -0.02078 0.29371 -0.02078 0.43957 0 h 1.45857 l 0.45955 0.19981 l 0.3996 0.13987 h 0.11988 l 39.9608 18.92144 l 0.19981 0.11988 l 0.45955 0.27973 l 0.27973 0.19981 c 0.21179 0.15864 0.406 0.33947 0.57943 0.53947 l 0.13987 0.15985 l 0.37962 0.51949 l 0.13987 0.25975 z M 279.29766 162.82869 l 9.17101 -21.71869 l -25.91458 -12.24799 z M 276.28062 169.9617 l -20.18021 -40.95983 l -39.36139 89.63209 l 40.93985 -4.71537 z M 275.58131 211.96051 l 20.30009 -2.29774 l -10.24994 -20.63975 l 2.83721 -7.49265 l 14.04622 28.43211 l 28.31223 15.14514 l -35.76492 -74.54688 l -37.54317 88.91279 l 70.33101 -9.29089 l -28.13241 -15.06522 l -26.65385 3.01704 z M 222.21365 223.90878 l 25.15533 14.48579 l 7.69245 -18.22213 z" stroke-linecap="round" />
</g>
</svg>