<?xml version="1.0" encoding="UTF-8" standalone="no" ?>
<!DOCTYPE svg PUBLIC "-//W3C//DTD SVG 1.1//EN" "http://www.w3.org/Graphics/SVG/1.1/DTD/svg11.dtd">
<svg xmlns="http://www.w3.org/2000/svg" xmlns:xlink="http://www.w3.org/1999/xlink" version="1.1" width="350" height="100" viewBox="0 0 350 100" xml:space="preserve">
<desc>Created with Fabric.js 3.6.6</desc>
<defs>
</defs>
<g transform="matrix(1 0 0 1 167.86 56.66)"  >
<g style=""   >
		<g transform="matrix(1 0 0 1 -148.87 31.36)"  >
<path style="stroke: none; stroke-width: 1; stroke-dasharray: none; stroke-linecap: butt; stroke-dashoffset: 0; stroke-linejoin: miter; stroke-miterlimit: 10; fill: rgb(255,255,255); fill-rule: nonzero; opacity: 1;"  transform=" translate(-126.13, -348.02)" d="M 130.03987 343.41999 h -7.81223 v 9.1955 h 3.04321 v -6.94274 h 1.7258 v 6.94274 h 3.04321 z" stroke-linecap="round" />
</g>
		<g transform="matrix(1 0 0 1 -137.83 31.37)"  >
<path style="stroke: none; stroke-width: 1; stroke-dasharray: none; stroke-linecap: butt; stroke-dashoffset: 0; stroke-linejoin: miter; stroke-miterlimit: 10; fill: rgb(255,255,255); fill-rule: nonzero; opacity: 1;"  transform=" translate(-137.17, -348.02)" d="M 137.79062 343.14333 c -2.64799 0 -4.45284 1.79167 -4.45284 4.84806 c 0 3.2013 1.75215 4.91393 4.53188 4.91393 c 1.31741 0 2.42403 -0.63236 3.13543 -1.34376 l -1.31741 -1.68628 c -0.54014 0.43474 -1.02758 0.7641 -1.62041 0.7641 c -1.02758 0 -1.56771 -0.86949 -1.56771 -2.64799 c 0 -1.75215 0.51379 -2.70069 1.46232 -2.70069 c 0.63236 0 1.10662 0.26348 1.51502 0.64553 l 1.4228 -1.67311 c -0.79044 -0.69823 -1.80485 -1.1198 -3.10908 -1.1198 z" stroke-linecap="round" />
</g>
		<g transform="matrix(1 0 0 1 -127.07 31.36)"  >
<path style="stroke: none; stroke-width: 1; stroke-dasharray: none; stroke-linecap: butt; stroke-dashoffset: 0; stroke-linejoin: miter; stroke-miterlimit: 10; fill: rgb(255,255,255); fill-rule: nonzero; opacity: 1;"  transform=" translate(-147.93, -348.02)" d="M 151.7727 343.41999 h -3.51748 l -1.65993 6.27086 c 0.21079 -0.98806 0.44792 -2.01563 0.44792 -3.70191 v -2.56894 h -2.96417 v 9.1955 h 3.58335 l 1.59406 -6.3499 c -0.23713 0.96171 -0.44792 2.14737 -0.44792 3.9127 v 2.4372 h 2.96417 z" stroke-linecap="round" />
</g>
		<g transform="matrix(1 0 0 1 -116 31.36)"  >
<path style="stroke: none; stroke-width: 1; stroke-dasharray: none; stroke-linecap: butt; stroke-dashoffset: 0; stroke-linejoin: miter; stroke-miterlimit: 10; fill: rgb(255,255,255); fill-rule: nonzero; opacity: 1;"  transform=" translate(-159, -348.02)" d="M 160.76181 347.66204 l 2.34499 -4.24205 h -3.2013 l -0.94853 2.46355 l -0.81679 -2.46355 h -3.254 l 2.23959 4.33427 l -2.38451 4.86123 h 3.21447 l 0.97488 -2.95099 l 1.08027 2.95099 h 3.254 z" stroke-linecap="round" />
</g>
		<g transform="matrix(1 0 0 1 -105.28 31.37)"  >
<path style="stroke: none; stroke-width: 1; stroke-dasharray: none; stroke-linecap: butt; stroke-dashoffset: 0; stroke-linejoin: miter; stroke-miterlimit: 10; fill: rgb(255,255,255); fill-rule: nonzero; opacity: 1;"  transform=" translate(-169.72, -348.02)" d="M 169.72457 343.14333 c -2.87195 0 -4.38697 1.88389 -4.38697 4.86123 c 0 3.04321 1.51502 4.90076 4.38697 4.90076 c 2.85877 0 4.37379 -1.93659 4.37379 -4.90076 c 0 -3.04321 -1.51502 -4.86123 -4.37379 -4.86123 z M 169.72457 345.26436 c 0.90901 0 1.22519 0.72457 1.22519 2.74021 c 0 2.00246 -0.27666 2.76656 -1.22519 2.76656 c -0.93536 0 -1.22519 -0.7641 -1.22519 -2.76656 c 0 -2.01563 0.303 -2.74021 1.22519 -2.74021 z" stroke-linecap="round" />
</g>
		<g transform="matrix(1 0 0 1 -93.84 32.55)"  >
<path style="stroke: none; stroke-width: 1; stroke-dasharray: none; stroke-linecap: butt; stroke-dashoffset: 0; stroke-linejoin: miter; stroke-miterlimit: 10; fill: rgb(255,255,255); fill-rule: nonzero; opacity: 1;"  transform=" translate(-181.16, -349.21)" d="M 184.77376 350.36273 v -6.94274 h -6.00738 l -0.38205 3.10908 c -0.28983 2.30546 -0.63236 3.28034 -1.00123 3.83366 h -0.7114 v 4.63727 h 1.98929 l 0.27666 -2.38451 h 4.43966 l 0.27666 2.38451 h 1.98929 v -4.63727 z M 181.86229 350.36273 h -2.1342 c 0.77727 -0.6587 1.31741 -1.84437 1.52819 -4.25523 l 0.03952 -0.54014 h 0.56649 z" stroke-linecap="round" />
</g>
		<g transform="matrix(1 0 0 1 -82.58 31.36)"  >
<path style="stroke: none; stroke-width: 1; stroke-dasharray: none; stroke-linecap: butt; stroke-dashoffset: 0; stroke-linejoin: miter; stroke-miterlimit: 10; fill: rgb(255,255,255); fill-rule: nonzero; opacity: 1;"  transform=" translate(-192.42, -348.02)" d="M 196.26594 343.41999 h -3.51748 l -1.65993 6.27086 c 0.21079 -0.98806 0.44792 -2.01563 0.44792 -3.70191 v -2.56894 h -2.96417 v 9.1955 h 3.58335 l 1.59406 -6.3499 c -0.23713 0.96171 -0.44792 2.14737 -0.44792 3.9127 v 2.4372 h 2.96417 z" stroke-linecap="round" />
</g>
		<g transform="matrix(1 0 0 1 -71.6 31.36)"  >
<path style="stroke: none; stroke-width: 1; stroke-dasharray: none; stroke-linecap: butt; stroke-dashoffset: 0; stroke-linejoin: miter; stroke-miterlimit: 10; fill: rgb(255,255,255); fill-rule: nonzero; opacity: 1;"  transform=" translate(-203.4, -348.02)" d="M 204.60952 352.61549 h 3.21447 l -2.60847 -9.1955 h -3.6097 l -2.62164 9.1955 h 3.18813 l 0.27666 -1.65993 h 1.87072 z M 202.80467 348.84771 l 0.56649 -3.33304 l 0.57966 3.33304 z" stroke-linecap="round" />
</g>
		<g transform="matrix(1 0 0 1 -61.23 31.36)"  >
<path style="stroke: none; stroke-width: 1; stroke-dasharray: none; stroke-linecap: butt; stroke-dashoffset: 0; stroke-linejoin: miter; stroke-miterlimit: 10; fill: rgb(255,255,255); fill-rule: nonzero; opacity: 1;"  transform=" translate(-213.77, -348.02)" d="M 216.99754 343.41999 h -6.4553 v 9.1955 h 3.04321 v -6.87687 h 3.13543 z" stroke-linecap="round" />
</g>
		<g transform="matrix(1 0 0 1 -51.07 31.36)"  >
<path style="stroke: none; stroke-width: 1; stroke-dasharray: none; stroke-linecap: butt; stroke-dashoffset: 0; stroke-linejoin: miter; stroke-miterlimit: 10; fill: rgb(255,255,255); fill-rule: nonzero; opacity: 1;"  transform=" translate(-223.93, -348.02)" d="M 224.78781 352.61549 h 3.04321 v -9.1955 h -3.04321 v 3.29352 h -1.71263 v -3.29352 h -3.04321 v 9.1955 h 3.04321 v -3.57017 h 1.71263 z" stroke-linecap="round" />
</g>
		<g transform="matrix(1 0 0 1 -39.49 31.37)"  >
<path style="stroke: none; stroke-width: 1; stroke-dasharray: none; stroke-linecap: butt; stroke-dashoffset: 0; stroke-linejoin: miter; stroke-miterlimit: 10; fill: rgb(255,255,255); fill-rule: nonzero; opacity: 1;"  transform=" translate(-235.51, -348.02)" d="M 235.5159 343.14333 c -2.87195 0 -4.38697 1.88389 -4.38697 4.86123 c 0 3.04321 1.51502 4.90076 4.38697 4.90076 c 2.85877 0 4.37379 -1.93659 4.37379 -4.90076 c 0 -3.04321 -1.51502 -4.86123 -4.37379 -4.86123 z M 235.5159 345.26436 c 0.90901 0 1.22519 0.72457 1.22519 2.74021 c 0 2.00246 -0.27666 2.76656 -1.22519 2.76656 c -0.93536 0 -1.22519 -0.7641 -1.22519 -2.76656 c 0 -2.01563 0.303 -2.74021 1.22519 -2.74021 z" stroke-linecap="round" />
</g>
		<g transform="matrix(1 0 0 1 -28.2 31.37)"  >
<path style="stroke: none; stroke-width: 1; stroke-dasharray: none; stroke-linecap: butt; stroke-dashoffset: 0; stroke-linejoin: miter; stroke-miterlimit: 10; fill: rgb(255,255,255); fill-rule: nonzero; opacity: 1;"  transform=" translate(-246.8, -348.02)" d="M 247.41648 343.14333 c -2.64799 0 -4.45284 1.79167 -4.45284 4.84806 c 0 3.2013 1.75215 4.91393 4.53188 4.91393 c 1.31741 0 2.42403 -0.63236 3.13543 -1.34376 l -1.31741 -1.68628 c -0.54014 0.43474 -1.02758 0.7641 -1.62041 0.7641 c -1.02758 0 -1.56771 -0.86949 -1.56771 -2.64799 c 0 -1.75215 0.51379 -2.70069 1.46232 -2.70069 c 0.63236 0 1.10662 0.26348 1.51502 0.64553 l 1.4228 -1.67311 c -0.79044 -0.69823 -1.80485 -1.1198 -3.10908 -1.1198 z" stroke-linecap="round" />
</g>
		<g transform="matrix(1 0 0 1 -17.91 31.36)"  >
<path style="stroke: none; stroke-width: 1; stroke-dasharray: none; stroke-linecap: butt; stroke-dashoffset: 0; stroke-linejoin: miter; stroke-miterlimit: 10; fill: rgb(255,255,255); fill-rule: nonzero; opacity: 1;"  transform=" translate(-257.09, -348.02)" d="M 260.83208 343.41999 h -7.48287 v 2.25277 h 2.14737 v 6.94274 h 3.04321 v -6.94274 h 1.97611 z" stroke-linecap="round" />
</g>
		<g transform="matrix(1 0 0 1 -7.3 31.36)"  >
<path style="stroke: none; stroke-width: 1; stroke-dasharray: none; stroke-linecap: butt; stroke-dashoffset: 0; stroke-linejoin: miter; stroke-miterlimit: 10; fill: rgb(255,255,255); fill-rule: nonzero; opacity: 1;"  transform=" translate(-267.7, -348.02)" d="M 271.54699 343.41999 h -3.51748 l -1.65993 6.27086 c 0.21079 -0.98806 0.44792 -2.01563 0.44792 -3.70191 v -2.56894 h -2.96417 v 9.1955 h 3.58335 l 1.59406 -6.3499 c -0.23713 0.96171 -0.44792 2.14737 -0.44792 3.9127 v 2.4372 h 2.96417 z" stroke-linecap="round" />
</g>
		<g transform="matrix(1 0 0 1 4.34 31.36)"  >
<path style="stroke: none; stroke-width: 1; stroke-dasharray: none; stroke-linecap: butt; stroke-dashoffset: 0; stroke-linejoin: miter; stroke-miterlimit: 10; fill: rgb(255,255,255); fill-rule: nonzero; opacity: 1;"  transform=" translate(-279.34, -348.02)" d="M 283.36853 343.41999 h -2.8983 l -1.58089 3.39891 h -0.7641 v -3.39891 h -3.04321 v 9.1955 h 3.04321 v -3.68874 h 0.69823 l 1.54137 3.68874 h 3.24082 l -2.22642 -5.16424 z" stroke-linecap="round" />
</g>
		<g transform="matrix(1 0 0 1 15.07 31.36)"  >
<path style="stroke: none; stroke-width: 1; stroke-dasharray: none; stroke-linecap: butt; stroke-dashoffset: 0; stroke-linejoin: miter; stroke-miterlimit: 10; fill: rgb(255,255,255); fill-rule: nonzero; opacity: 1;"  transform=" translate(-290.07, -348.02)" d="M 291.27737 352.61549 h 3.21447 l -2.60847 -9.1955 h -3.6097 l -2.62164 9.1955 h 3.18813 l 0.27666 -1.65993 h 1.87072 z M 289.47252 348.84771 l 0.56649 -3.33304 l 0.57966 3.33304 z" stroke-linecap="round" />
</g>
		<g transform="matrix(1 0 0 1 30.03 31.84)"  >
<path style="stroke: none; stroke-width: 1; stroke-dasharray: none; stroke-linecap: butt; stroke-dashoffset: 0; stroke-linejoin: miter; stroke-miterlimit: 10; fill: rgb(255,255,255); fill-rule: nonzero; opacity: 1;"  transform=" translate(-305.03, -348.49)" d="M 302.70807 349.58546 h 4.65045 v -2.1869 h -4.65045 z" stroke-linecap="round" />
</g>
		<g transform="matrix(1 0 0 1 44.41 31.37)"  >
<path style="stroke: none; stroke-width: 1; stroke-dasharray: none; stroke-linecap: butt; stroke-dashoffset: 0; stroke-linejoin: miter; stroke-miterlimit: 10; fill: rgb(255,255,255); fill-rule: nonzero; opacity: 1;"  transform=" translate(-319.41, -348.02)" d="M 318.94731 343.14333 c -1.46232 0 -2.29229 0.42157 -3.09591 1.1198 l 1.40963 1.63359 c 0.44792 -0.42157 0.82997 -0.64553 1.38328 -0.64553 c 0.82997 0 1.17249 0.51379 1.27789 1.68628 h -2.66116 v 2.00246 h 2.66116 c -0.06587 1.17249 -0.48744 1.79167 -1.31741 1.79167 c -0.54014 0 -0.94853 -0.17126 -1.43597 -0.56649 l -1.29106 1.60724 c 0.7641 0.72457 1.67311 1.13297 2.99051 1.13297 c 2.51625 0 4.09714 -1.71263 4.09714 -4.91393 c 0 -2.99051 -1.38328 -4.84806 -4.01809 -4.84806 z" stroke-linecap="round" />
</g>
		<g transform="matrix(1 0 0 1 54.39 31.36)"  >
<path style="stroke: none; stroke-width: 1; stroke-dasharray: none; stroke-linecap: butt; stroke-dashoffset: 0; stroke-linejoin: miter; stroke-miterlimit: 10; fill: rgb(255,255,255); fill-rule: nonzero; opacity: 1;"  transform=" translate(-329.39, -348.02)" d="M 333.12701 343.41999 h -7.48287 v 2.25277 h 2.14737 v 6.94274 h 3.04321 v -6.94274 h 1.97611 z" stroke-linecap="round" />
</g>
		<g transform="matrix(1 0 0 1 64.74 31.37)"  >
<path style="stroke: none; stroke-width: 1; stroke-dasharray: none; stroke-linecap: butt; stroke-dashoffset: 0; stroke-linejoin: miter; stroke-miterlimit: 10; fill: rgb(255,255,255); fill-rule: nonzero; opacity: 1;"  transform=" translate(-339.74, -348.02)" d="M 339.74479 343.14333 c -2.87195 0 -4.38697 1.88389 -4.38697 4.86123 c 0 3.04321 1.51502 4.90076 4.38697 4.90076 c 2.85877 0 4.37379 -1.93659 4.37379 -4.90076 c 0 -3.04321 -1.51502 -4.86123 -4.37379 -4.86123 z M 339.74479 345.26436 c 0.90901 0 1.22519 0.72457 1.22519 2.74021 c 0 2.00246 -0.27666 2.76656 -1.22519 2.76656 c -0.93536 0 -1.22519 -0.7641 -1.22519 -2.76656 c 0 -2.01563 0.303 -2.74021 1.22519 -2.74021 z" stroke-linecap="round" />
</g>
		<g transform="matrix(1 0 0 1 81.85 31.36)"  >
<path style="stroke: none; stroke-width: 1; stroke-dasharray: none; stroke-linecap: butt; stroke-dashoffset: 0; stroke-linejoin: miter; stroke-miterlimit: 10; fill: rgb(255,255,255); fill-rule: nonzero; opacity: 1;"  transform=" translate(-356.85, -348.02)" d="M 360.75304 343.41999 h -7.81223 v 9.1955 h 3.04321 v -6.94274 h 1.7258 v 6.94274 h 3.04321 z" stroke-linecap="round" />
</g>
		<g transform="matrix(1 0 0 1 93.09 31.36)"  >
<path style="stroke: none; stroke-width: 1; stroke-dasharray: none; stroke-linecap: butt; stroke-dashoffset: 0; stroke-linejoin: miter; stroke-miterlimit: 10; fill: rgb(255,255,255); fill-rule: nonzero; opacity: 1;"  transform=" translate(-368.09, -348.02)" d="M 367.80556 343.41999 h -3.51748 v 9.1955 h 3.04321 v -2.75338 h 0.84314 c 2.21324 0 3.71509 -1.13297 3.71509 -3.29352 c 0 -2.0815 -1.55454 -3.1486 -4.08396 -3.1486 z M 367.85826 347.74108 h -0.52696 v -2.22642 h 0.42157 c 0.80362 0 1.04075 0.43474 1.04075 1.05393 c 0 0.75092 -0.303 1.17249 -0.93536 1.17249 z" stroke-linecap="round" />
</g>
		<g transform="matrix(1 0 0 1 104.32 31.37)"  >
<path style="stroke: none; stroke-width: 1; stroke-dasharray: none; stroke-linecap: butt; stroke-dashoffset: 0; stroke-linejoin: miter; stroke-miterlimit: 10; fill: rgb(255,255,255); fill-rule: nonzero; opacity: 1;"  transform=" translate(-379.32, -348.02)" d="M 379.3241 343.14333 c -2.87195 0 -4.38697 1.88389 -4.38697 4.86123 c 0 3.04321 1.51502 4.90076 4.38697 4.90076 c 2.85877 0 4.37379 -1.93659 4.37379 -4.90076 c 0 -3.04321 -1.51502 -4.86123 -4.37379 -4.86123 z M 379.3241 345.26436 c 0.90901 0 1.22519 0.72457 1.22519 2.74021 c 0 2.00246 -0.27666 2.76656 -1.22519 2.76656 c -0.93536 0 -1.22519 -0.7641 -1.22519 -2.76656 c 0 -2.01563 0.303 -2.74021 1.22519 -2.74021 z" stroke-linecap="round" />
</g>
		<g transform="matrix(1 0 0 1 115.61 31.37)"  >
<path style="stroke: none; stroke-width: 1; stroke-dasharray: none; stroke-linecap: butt; stroke-dashoffset: 0; stroke-linejoin: miter; stroke-miterlimit: 10; fill: rgb(255,255,255); fill-rule: nonzero; opacity: 1;"  transform=" translate(-390.61, -348.02)" d="M 391.22468 343.14333 c -2.64799 0 -4.45284 1.79167 -4.45284 4.84806 c 0 3.2013 1.75215 4.91393 4.53188 4.91393 c 1.31741 0 2.42403 -0.63236 3.13543 -1.34376 l -1.31741 -1.68628 c -0.54014 0.43474 -1.02758 0.7641 -1.62041 0.7641 c -1.02758 0 -1.56771 -0.86949 -1.56771 -2.64799 c 0 -1.75215 0.51379 -2.70069 1.46232 -2.70069 c 0.63236 0 1.10662 0.26348 1.51502 0.64553 l 1.4228 -1.67311 c -0.79044 -0.69823 -1.80485 -1.1198 -3.10908 -1.1198 z" stroke-linecap="round" />
</g>
		<g transform="matrix(1 0 0 1 125.9 31.36)"  >
<path style="stroke: none; stroke-width: 1; stroke-dasharray: none; stroke-linecap: butt; stroke-dashoffset: 0; stroke-linejoin: miter; stroke-miterlimit: 10; fill: rgb(255,255,255); fill-rule: nonzero; opacity: 1;"  transform=" translate(-400.9, -348.02)" d="M 404.64028 343.41999 h -7.48287 v 2.25277 h 2.14737 v 6.94274 h 3.04321 v -6.94274 h 1.97611 z" stroke-linecap="round" />
</g>
		<g transform="matrix(1 0 0 1 136.25 31.37)"  >
<path style="stroke: none; stroke-width: 1; stroke-dasharray: none; stroke-linecap: butt; stroke-dashoffset: 0; stroke-linejoin: miter; stroke-miterlimit: 10; fill: rgb(255,255,255); fill-rule: nonzero; opacity: 1;"  transform=" translate(-411.25, -348.02)" d="M 411.25805 343.14333 c -2.87195 0 -4.38697 1.88389 -4.38697 4.86123 c 0 3.04321 1.51502 4.90076 4.38697 4.90076 c 2.85877 0 4.37379 -1.93659 4.37379 -4.90076 c 0 -3.04321 -1.51502 -4.86123 -4.37379 -4.86123 z M 411.25805 345.26436 c 0.90901 0 1.22519 0.72457 1.22519 2.74021 c 0 2.00246 -0.27666 2.76656 -1.22519 2.76656 c -0.93536 0 -1.22519 -0.7641 -1.22519 -2.76656 c 0 -2.01563 0.303 -2.74021 1.22519 -2.74021 z" stroke-linecap="round" />
</g>
		<g transform="matrix(1 0 0 1 -133.17 -10.41)"  >
<path style="stroke: none; stroke-width: 1; stroke-dasharray: none; stroke-linecap: butt; stroke-dashoffset: 0; stroke-linejoin: miter; stroke-miterlimit: 10; fill: rgb(255,255,255); fill-rule: nonzero; opacity: 1;"  transform=" translate(-141.83, -306.24)" d="M 122.42496 307.28212 c -0.07118 0 -0.07118 0 -0.07118 0 c 0 0.49826 0 0.99652 0 1.56597 c 0 1.28125 -0.14236 22.4218 -0.14236 23.34715 c 0 1.28125 0.28472 1.63715 1.42361 1.63715 c 0 0 1.77951 -0.07118 3.55902 -0.07118 c 6.05033 0 12.10066 0.07118 18.0798 0.07118 c 17.29682 0 16.22912 0.85416 16.22912 -4.27082 c 0 -1.70833 -0.07118 -3.41666 -0.14236 -5.19616 c -0.07118 -2.34895 -1.85069 -2.27777 -3.34548 -2.27777 c 0 0 -13.3819 0.3559 -20.28639 0.3559 c -1.21007 0 -1.21007 -0.14236 -1.21007 -1.42361 c 0 -10.67705 -0.21354 -9.68053 1.49479 -9.68053 c 14.52079 -0.21354 13.88016 -0.28472 13.88016 -5.55207 c 0 -6.69095 -0.14236 -6.33505 -11.10413 -6.33505 c -1.56597 0 -3.34548 0.07118 -3.34548 0.07118 c -1.0677 0 -0.92534 0.3559 -0.92534 -8.04338 c 0 -0.78298 0.28472 -1.0677 0.99652 -1.0677 c 0 0 0.3559 0 0.64062 0 c 0.21354 0 0.3559 0 0.56944 0 c 0 0 6.40623 0.21354 10.74823 0.21354 c 11.46003 0 10.81941 -0.28472 11.31767 -1.99305 c 0.21354 -0.92534 0.21354 -1.13889 0.21354 -5.48089 c 0 -3.48784 0.14236 -4.55554 -2.34895 -4.55554 c 0 0 -8.18574 0.56944 -32.38705 0.56944 c -1.42361 0 -2.70485 -0.14236 -2.70485 -0.14236 c -0.7118 0 -1.13889 0.49826 -1.13889 1.35243 c -0.14236 2.84721 -0.28472 5.62325 -0.28472 8.39928 c 0 4.48436 0.21354 13.7378 0.28472 18.50689 z" stroke-linecap="round" />
</g>
		<g transform="matrix(1 0 0 1 -76.35 -10.5)"  >
<path style="stroke: none; stroke-width: 1; stroke-dasharray: none; stroke-linecap: butt; stroke-dashoffset: 0; stroke-linejoin: miter; stroke-miterlimit: 10; fill: rgb(255,255,255); fill-rule: nonzero; opacity: 1;"  transform=" translate(-198.65, -306.16)" d="M 198.30319 333.69002 v 0 c 33.45476 0 32.17351 0.78298 32.17351 -2.06423 c 0 0 -0.07118 -0.42708 -0.07118 -2.49131 c 0 -7.9722 0.3559 -10.96177 0.3559 -20.14403 c 0 -9.18226 0.21354 -9.11108 -2.49131 -9.11108 c -7.54512 0 -9.53816 -0.3559 -20.9982 -0.3559 c -1.28125 0 -1.35243 -0.21354 -1.35243 -2.27777 c 0 -1.63715 0.21354 -3.34548 0.56944 -4.98262 c 0.28472 -1.49479 0.49826 -1.77951 2.06423 -1.85069 c 3.91492 -0.28472 7.75866 -0.64062 11.67357 -0.64062 c 12.10066 0 11.24649 0.64062 11.24649 -3.77256 c 0 -1.49479 -0.07118 -2.91839 -0.28472 -4.342 c -0.56944 -3.91492 0.28472 -1.99305 -15.94439 -2.91839 c -7.18921 -0.42708 -14.37843 -0.14236 -21.56764 0.28472 c -2.27777 0.14236 -2.63367 0.49826 -2.63367 3.2743 c 0 28.61449 0.14236 29.3263 2.70485 29.3263 c 0 0 2.20659 -0.07118 5.76561 -0.07118 c 2.20659 0 4.48436 0 6.76213 0 c 5.26734 0 8.82636 -0.28472 8.82636 -0.28472 c 1.21007 0 1.0677 -0.21354 1.0677 9.75171 c 0 2.34895 4.12846 1.63715 -47.762 1.63715 c -0.28472 0 -0.56944 0.07118 -0.92534 0.07118 c -0.7118 0 -1.63715 -0.28472 -1.63715 0.99652 c 0 10.53469 -0.56944 9.96525 3.06075 9.96525 z M 185.27719 318.52861 c 2.49131 0 1.35243 -15.37495 1.35243 -16.86974 c 0 -2.84721 0 -5.62325 0 -8.47046 c 0 -9.3958 0.3559 -8.54164 -1.42361 -8.54164 c -19.93049 0 -18.93397 0.21354 -18.93397 0.99652 c -0.64062 7.33157 -0.49826 8.18574 1.13889 8.18574 c -0.07118 0 1.35243 0 5.12498 0 c 0.92534 0 1.35243 -0.49826 1.42361 -1.42361 c 0.28472 -2.13541 0.28472 -1.63715 3.55902 -1.63715 c 0.78298 0 1.0677 0.3559 1.0677 1.13889 c 0 0 -0.07118 1.13889 -0.07118 2.77603 c 0 1.0677 0 2.63367 0 3.20311 c 0 1.49479 0.49826 1.13889 -10.46351 1.35243 c -1.85069 0 -1.99305 -2.27777 -1.99305 17.51036 c 0 1.77951 -1.0677 1.77951 19.21869 1.77951 z M 175.31194 306.00087 c 3.91492 0 3.41666 -0.49826 3.41666 2.20659 c 0 2.63367 0.21354 2.77603 -3.20311 2.77603 c -0.92534 0 -1.13889 -0.07118 -1.13889 -1.99305 c 0 -0.07118 0 -0.3559 0 -0.28472 c -0.28472 -2.49131 -0.28472 -2.70485 0.92534 -2.70485 z" stroke-linecap="round" />
</g>
		<g transform="matrix(1 0 0 1 -19.34 -10.55)"  >
<path style="stroke: none; stroke-width: 1; stroke-dasharray: none; stroke-linecap: butt; stroke-dashoffset: 0; stroke-linejoin: miter; stroke-miterlimit: 10; fill: rgb(255,255,255); fill-rule: nonzero; opacity: 1;"  transform=" translate(-255.66, -306.11)" d="M 255.60336 308.84808 c -0.92534 -0.7118 -2.06423 -3.55902 -4.76908 -8.3281 c -1.0677 -1.85069 -0.64062 -2.20659 -0.64062 -10.03643 c 0 -12.45656 -0.07118 -11.60239 -1.28125 -11.60239 c -0.99652 0 -9.0399 0.28472 -11.24649 0.3559 c -2.27777 0.07118 -1.92187 -2.20659 -1.92187 19.93049 c 0 1.0677 -0.85416 -0.28472 11.67357 16.37148 c 1.0677 1.35243 0.78298 2.34895 0.78298 5.69443 c 0 13.3819 0.14236 12.52774 2.27777 12.59892 c 1.42361 0 2.91839 0.07118 4.342 0.07118 c 7.6163 0 8.684 0.14236 8.684 -1.63715 c 0 -0.14236 -0.56944 -12.95482 -0.56944 -13.09718 c 0 -4.62672 12.6701 -16.22912 12.6701 -20.71348 c 0 -0.7118 -0.07118 -0.78298 -0.07118 -1.77951 c 0 -17.93744 0.42708 -18.36453 -2.06423 -18.36453 c -0.21354 0 -5.19616 0.14236 -10.32115 0.42708 c -1.63715 0.07118 -1.77951 0.14236 -1.77951 1.63715 l 0.14236 18.43571 c 0 0.92534 0.3559 0.14236 -5.90797 10.03643 z" stroke-linecap="round" />
</g>
		<g transform="matrix(1 0 0 1 43.34 -10.65)"  >
<path style="stroke: none; stroke-width: 1; stroke-dasharray: none; stroke-linecap: butt; stroke-dashoffset: 0; stroke-linejoin: miter; stroke-miterlimit: 10; fill: rgb(255,255,255); fill-rule: nonzero; opacity: 1;"  transform=" translate(-318.34, -306)" d="M 300.37579 278.95234 c -3.13193 0.07118 -2.70485 -3.48784 -2.70485 48.40263 c 0 5.26734 -0.21354 6.12151 1.42361 6.12151 c 0 0 2.56249 -0.21354 5.90797 -0.21354 c 1.49479 0 5.19616 0 5.19616 0 c 1.42361 0 1.99305 -0.56944 1.99305 -1.85069 c 0 0 -0.21354 -2.70485 -0.21354 -6.54859 c 0 -2.70485 0.07118 -5.48089 0.07118 -8.18574 c 0 -5.33852 -1.13889 -3.70138 6.90449 -4.27082 c 3.70138 -0.28472 7.33157 -0.92534 10.67705 -2.49131 c 5.55207 -2.49131 9.3958 -8.684 9.3958 -14.73433 c 0 -8.82636 -7.04685 -16.6562 -19.93049 -16.6562 c 0 0 -5.40971 0.28472 -18.72043 0.42708 z M 320.02156 299.23874 c -8.89754 0 -8.11456 0.92534 -8.11456 -2.56249 c 0 -1.70833 -0.07118 -4.342 -0.07118 -4.342 c 0 -1.13889 -0.14236 -1.13889 9.25344 -1.13889 c 2.13541 0 3.77256 2.42013 3.77256 4.342 c 0 1.42361 -0.7118 3.70138 -2.98957 3.70138 c 0 0 -0.85416 0 -1.85069 0 z" stroke-linecap="round" />
</g>
		<g transform="matrix(1 0 0 1 88.51 -10.47)"  >
<path style="stroke: none; stroke-width: 1; stroke-dasharray: none; stroke-linecap: butt; stroke-dashoffset: 0; stroke-linejoin: miter; stroke-miterlimit: 10; fill: rgb(255,255,255); fill-rule: nonzero; opacity: 1;"  transform=" translate(-363.51, -306.19)" d="M 361.80442 278.59644 c -19.71695 0 -18.50689 0.28472 -18.50689 3.6302 c 0 28.32977 0.07118 29.39748 2.70485 29.39748 c 0 0 2.20659 -0.07118 5.76561 -0.07118 c 2.20659 0 4.48436 0 6.76213 0 c 5.33852 0 8.89754 -0.28472 8.89754 -0.28472 c 1.0677 0 0.99652 -0.28472 0.99652 9.32462 c 0 2.13541 -19.07633 0.49826 -23.06243 1.35243 c -1.21007 0.28472 -1.63715 0.64062 -1.63715 1.85069 c 0 1.63715 0.14236 5.55207 0.42708 8.39928 c 0.21354 1.85069 -0.21354 1.56597 20.07285 1.56597 c 19.21869 0 18.43571 0.3559 18.43571 -2.27777 c 0 0 0 -1.21007 0 -2.20659 c 0 -8.47046 0.3559 -10.67705 0.3559 -20.28639 c 0 -9.11108 0.28472 -9.11108 -2.56249 -9.11108 c -6.19269 0 -12.38538 -0.42708 -18.64925 -0.42708 c -1.13889 0 -2.34895 0.07118 -2.34895 0.07118 c -1.13889 0 -1.28125 -0.21354 -1.28125 -2.27777 c 0 -1.63715 0.21354 -3.20311 0.49826 -4.84026 c 0.3559 -1.70833 0.56944 -1.92187 2.20659 -1.99305 c 3.84374 -0.28472 7.68748 -0.64062 11.53121 -0.64062 c 1.77951 0 2.13541 0.07118 3.91492 0.07118 c 8.11456 0 7.40275 0.07118 7.40275 -3.91492 c 0 -1.56597 -0.07118 -3.20311 -0.3559 -4.84026 c -0.56944 -3.6302 -0.42708 -0.92534 -18.72043 -2.49131 c -0.99652 0 -1.92187 0 -2.84721 0 z" stroke-linecap="round" />
</g>
		<g transform="matrix(1 0 0 1 132.92 -10.55)"  >
<path style="stroke: none; stroke-width: 1; stroke-dasharray: none; stroke-linecap: butt; stroke-dashoffset: 0; stroke-linejoin: miter; stroke-miterlimit: 10; fill: rgb(255,255,255); fill-rule: nonzero; opacity: 1;"  transform=" translate(-407.92, -306.11)" d="M 407.85809 308.84808 c -0.92534 -0.7118 -2.06423 -3.55902 -4.76908 -8.3281 c -1.0677 -1.85069 -0.64062 -2.20659 -0.64062 -10.03643 c 0 -12.45656 -0.07118 -11.60239 -1.28125 -11.60239 c -0.99652 0 -9.0399 0.28472 -11.24649 0.3559 c -2.27777 0.07118 -1.92187 -2.20659 -1.92187 19.93049 c 0 1.0677 -0.85416 -0.28472 11.67357 16.37148 c 1.0677 1.35243 0.78298 2.34895 0.78298 5.69443 c 0 13.3819 0.14236 12.52774 2.27777 12.59892 c 1.42361 0 2.91839 0.07118 4.342 0.07118 c 7.6163 0 8.684 0.14236 8.684 -1.63715 c 0 -0.14236 -0.56944 -12.95482 -0.56944 -13.09718 c 0 -4.62672 12.6701 -16.22912 12.6701 -20.71348 c 0 -0.7118 -0.07118 -0.78298 -0.07118 -1.77951 c 0 -17.93744 0.42708 -18.36453 -2.06423 -18.36453 c -0.21354 0 -5.19616 0.14236 -10.32115 0.42708 c -1.63715 0.07118 -1.77951 0.14236 -1.77951 1.63715 l 0.14236 18.43571 c 0 0.92534 0.3559 0.14236 -5.90797 10.03643 z" stroke-linecap="round" />
</g>
</g>
</g>
</svg>