<svg version="1.0" xmlns="http://www.w3.org/2000/svg"
 width="512.000000pt" height="512.000000pt" viewBox="0 0 512.000000 512.000000"
 preserveAspectRatio="xMidYMid meet">

<g transform="translate(0.000000,512.000000) scale(0.100000,-0.100000)"
fill="#33aa25" stroke="none" >
<path d="M675 5107 c-154 -41 -273 -155 -327 -316 l-23 -66 -3 -2125 c-2
-1425 1 -2147 8 -2192 21 -136 76 -240 167 -314 78 -64 149 -87 263 -88 167
-2 107 -33 1100 575 327 201 1069 655 1649 1009 1171 716 1167 713 1236 854
20 39 41 99 47 133 31 169 -65 361 -234 471 -35 22 -666 383 -1403 802 -737
420 -1439 819 -1560 888 -121 69 -302 171 -402 228 -100 57 -210 113 -245 125
-77 26 -204 33 -273 16z"/>
</g>
</svg>
