<svg version="1.0" xmlns="http://www.w3.org/2000/svg"
 width="512.000000pt" height="512.000000pt" viewBox="0 0 512.000000 512.000000"
 preserveAspectRatio="xMidYMid meet">

<g transform="translate(0.000000,512.000000) scale(0.100000,-0.100000)"
fill="#ffffff" stroke="none">
<path d="M2710 5114 c-705 -65 -1311 -422 -1695 -999 -137 -206 -259 -487
-313 -720 -77 -333 -77 -697 0 -1030 53 -229 175 -513 306 -710 37 -55 69
-104 71 -109 2 -4 -228 -241 -511 -525 -403 -404 -520 -527 -539 -566 -19 -41
-24 -66 -23 -135 0 -72 4 -93 27 -137 36 -69 88 -120 156 -152 46 -21 70 -26
136 -26 138 1 126 -8 709 567 l513 507 110 -72 c265 -175 575 -292 905 -344
156 -24 480 -24 638 0 504 77 947 305 1293 667 324 337 518 727 599 1200 18
103 22 165 22 350 0 185 -4 247 -22 350 -81 473 -275 863 -599 1200 -344 359
-787 589 -1284 665 -102 15 -409 27 -499 19z m445 -659 c364 -63 711 -263 946
-543 181 -217 295 -455 351 -734 32 -162 32 -434 0 -596 -86 -430 -327 -793
-687 -1033 -563 -377 -1312 -352 -1855 61 -105 80 -274 258 -347 365 -329 484
-372 1101 -112 1618 246 488 701 807 1256 877 95 12 340 4 448 -15z"/>
</g>
</svg>
